<?xml version="1.0" encoding="utf-8"?>
<!-- Svg Vector Icons : http://www.onlinewebfonts.com/icon -->
<!DOCTYPE svg PUBLIC "-//W3C//DTD SVG 1.1//EN" "http://www.w3.org/Graphics/SVG/1.1/DTD/svg11.dtd">
<svg version="1.1" xmlns="http://www.w3.org/2000/svg" xmlns:xlink="http://www.w3.org/1999/xlink" x="0px" y="0px" viewBox="0 0 256 256" enable-background="new 0 0 256 256" xml:space="preserve">
<metadata> Svg Vector Icons : http://www.onlinewebfonts.com/icon </metadata>
<g><g><g><path fill="#000000" d="M28.5,45.3C22,47,15.7,52.1,12.8,57.9c-2.9,5.7-2.8,3.1-2.8,70.3c0,53,0.1,61.7,0.7,64.2c2.1,8.7,9.2,16,17.8,18.2c3.7,1,195.2,1,199,0c8.6-2.3,15.7-9.6,17.8-18.2c1-4.3,1-123.9,0-128.7c-1.8-8.8-9-16.2-18-18.5c-2.4-0.6-14-0.7-99.5-0.6C45.5,44.6,30.6,44.7,28.5,45.3z M78.1,102.3l49.9,40.4l45.1-36.5c24.7-20,47.6-38.6,50.9-41.2c3.3-2.6,5.9-4.7,5.9-4.6c0,0.4-101.4,106.5-101.8,106.5S26.1,60.8,26.1,60.3c0-0.2,0.5,0.1,1.1,0.6C27.7,61.5,50.6,80.1,78.1,102.3z"/></g></g></g>
</svg>