<?xml version="1.0" encoding="utf-8"?>
<!-- Svg Vector Icons : http://www.onlinewebfonts.com/icon -->
<!DOCTYPE svg PUBLIC "-//W3C//DTD SVG 1.1//EN" "http://www.w3.org/Graphics/SVG/1.1/DTD/svg11.dtd">
<svg version="1.1" xmlns="http://www.w3.org/2000/svg" xmlns:xlink="http://www.w3.org/1999/xlink" x="0px" y="0px" viewBox="0 0 256 256" enable-background="new 0 0 256 256" xml:space="preserve">
<metadata> Svg Vector Icons : http://www.onlinewebfonts.com/icon </metadata>
<g><g><g><path fill="#000000" d="M51.8,74.3c-2.5,0.5-5.2,1.2-6,1.7c-1.7,1-2.4,3.1-1.5,4.8c0.3,0.7,6.7,5.7,14.1,11c25.3,18.4,46.6,34.2,46.7,34.7c0.1,0.3-4.2,3-9.7,6c-5.4,3-13.7,7.8-18.4,10.6l-8.6,5.1l-11.8-2.8c-15-3.5-24.1-5.3-31.6-6.3c-5.5-0.7-6.2-0.7-9.9,0.7c-4.3,1.6-5.8,3.3-4.7,5.5c0.4,0.7,4.1,4.1,8.2,7.5c4.1,3.5,12.5,10.7,18.6,16.1c12.3,10.9,16,13.2,22.8,13.7c3.7,0.3,5.4-0.1,12.2-2.3c17-5.7,35-13.4,82-35.5c38.8-18.1,54.9-26.1,65.3-32.3c18.2-10.9,28.3-20.9,26.4-26.4c-0.7-2.1-7.9-5.6-14.9-7.3c-4.8-1.2-8.2-1.5-14.9-1.5c-12.7,0.1-16.1,1.1-39.2,12.6l-19.5,9.6l-8.5-2.7c-28.2-9.1-62-18.8-76.6-22.1C65,73.1,58.6,73,51.8,74.3z"/></g></g></g>
</svg>