<?xml version="1.0" encoding="utf-8"?>
<!-- Svg Vector Icons : http://www.onlinewebfonts.com/icon -->
<!DOCTYPE svg PUBLIC "-//W3C//DTD SVG 1.1//EN" "http://www.w3.org/Graphics/SVG/1.1/DTD/svg11.dtd">
<svg version="1.1" xmlns="http://www.w3.org/2000/svg" xmlns:xlink="http://www.w3.org/1999/xlink" x="0px" y="0px" viewBox="0 0 256 256" enable-background="new 0 0 256 256" xml:space="preserve">
<metadata> Svg Vector Icons : http://www.onlinewebfonts.com/icon </metadata>
<g><g><g><path fill="#000000" d="M120.9,16.6c-2,2-2,3.2-0.2,9.3c0.7,2.6,1.4,4.9,1.4,5.2c0,0.3-1.1,0.9-2.4,1.3c-1.3,0.4-5.3,1.9-8.8,3.2c-35,13.6-61.1,34.1-69.7,55c-2.7,6.6-3.4,12.7-2.1,18.8c0.9,4.1,2.1,6.5,4.5,8.5c7.2,6.1,18.4,3.3,34-8.6c5.1-3.9,5.3-4.1,6.1-7c0.4-1.4,1.1-3.3,1.4-4.1c0.7-1.5,0.7-1.4,0.5,2.9c-0.3,5.2,0.3,7.3,2.4,8.4c3.8,2,20.4,2.6,26.8,1.1c10-2.4,19-10.2,23.9-21.1c1.2-2.6,1.2-3,1.1-9.4c0-3.6,0-6.6,0.1-6.6c0.1,0,1.4,2,2.9,4.5c1.5,2.5,3.1,5,3.7,5.6c2.6,2.8,12.7,7.1,19.3,8c11.9,1.7,24.1-3.1,35.4-14c2.8-2.7,3.2-3.2,3.2-4.8c0-1-0.2-2.2-0.6-2.8c-0.7-1.3-5.5-7.3-6.6-8.2c-0.5-0.3-1-1-1.3-1.5c-0.7-1.3,3,1.4,5.7,4.1c1.1,1.1,2.2,2,2.4,2c0.2,0,1.1,0.5,1.8,1c1.4,1,1.8,1.1,11.5,1c7.7,0,10.9-0.2,13.6-0.8c8.6-2,13.4-6,14.9-12.5c1.4-6.4-4.3-16.7-12.3-22.4c-8-5.7-19.6-9.7-33.5-11.4c-6-0.8-24-0.8-30.9,0c-8.7,1-21.5,3.2-29.5,5.2c-4.1,1-7.6,1.7-7.7,1.5c-0.1-0.2-0.9-2.5-1.6-5.2c-1-3.9-1.6-5.2-2.8-6.4C125.3,14.4,123.1,14.4,120.9,16.6z M198.4,30.6c17.6,2.1,31.9,9.3,36.3,18.3c1.2,2.5,1.6,5.3,0.9,6.4c-0.5,0.7-4.1,2.2-6.8,2.8c-3.8,0.8-10.6,1.2-14.9,0.8c-3.9-0.3-4.1-0.4-6.3-2.3c-7.2-6.4-17.2-10.9-27.6-12.4c-3.1-0.4-4.1-0.4-5.3,0.1c-2.5,1-3.6,4.5-2.2,6.8c0.3,0.5,3.1,3.2,6.1,6c3.1,2.8,7.5,7.3,9.9,10l4.4,4.8l-1.1,1.1c-1.8,2-6.6,5.2-10.2,6.8c-4.1,2-8.8,2.8-13,2.4c-5-0.5-13.1-3.6-15-5.6c-0.4-0.5-3.9-6.2-7.7-12.7c-3.9-6.5-7.6-12.6-8.4-13.4c-1.2-1.3-1.8-1.5-3.4-1.5c-2.1,0-3.6,0.9-4.5,2.7c-0.4,0.8-0.4,5.1,0,17.1l0.6,16l-1.5,2.7c-6.2,11.2-14.5,15.4-27.9,14.1c-2.7-0.2-4.9-0.6-5.1-0.7c-0.5-0.5,1.5-11.4,3.3-18.4c2.8-11.1,2.8-12.5-0.4-14.2c-2.7-1.4-4.5-0.7-8.8,3.6c-6,6-10.8,14-14.3,23.6l-1.4,4.1l-3.7,2.7c-7.6,5.6-13.9,8.7-17.9,9.1c-1.6,0.1-1.9,0-2.8-1.4c-1.3-1.9-1.8-6-1.2-9.4C51.7,83.6,70.2,65,97.7,51.2c8.6-4.3,19.5-8.9,26.9-11.2c2-0.6,5.4-1.7,7.4-2.3C153.1,31,179.2,28.2,198.4,30.6z M209.5,65.5c1.3,1.4,1.5,1.7,0.9,2.1c-1.2,0.7-3.5,0.5-4.7-0.4l-1.1-0.9l1.1-1.2C207.2,63.5,207.6,63.5,209.5,65.5z"/><path fill="#000000" d="M147.7,100c-1.2,0.6-1.8,1.3-2.2,2.7c-0.7,1.9-0.4,2.6,20.1,69.1c22.8,74,21.1,69.3,25.1,69.3c2.8,0,5-2,5-4.7c0-1.2-40.8-133.8-41.6-135c-0.5-0.9-3-2.2-4.1-2.2C149.6,99.2,148.5,99.5,147.7,100z"/><path fill="#000000" d="M11.6,127.7c-1.1,1.1-1.6,2-1.6,3c0,2.8,9.7,23,16.5,34.3c14,23.2,29.7,39,47.4,47.7c3,1.5,5.4,2.7,5.3,2.7s-12.5,3.7-27.4,8.1c-24.7,7.4-27.3,8.3-28.4,9.5c-2.8,3.1-0.8,7.9,3.2,7.9c1,0,17.2-4.7,35.9-10.3l34.2-10.3l7.9-0.1c4.4-0.1,9.8-0.5,12.1-0.8l4.1-0.7l2.6,1.9c1.4,1.1,6.6,5,11.4,8.7c16.1,12.4,15,11.6,17,11.6c3.6,0,6.1-3.8,4.5-6.8c-0.4-0.8-5.3-4.9-12.2-10.2l-11.5-8.8l1.8-0.7c7.7-2.9,21.8-11.3,22.9-13.7c1-2.2,0.7-3.9-1-5.6c-2.1-2.1-4-2.1-7.1,0c-4,2.8-9.8,6.3-13.8,8.1c-5.1,2.4-12.1,4.7-12.7,4.2c-0.2-0.2-24.1-18.6-53-40.8c-48-36.9-52.7-40.4-54.5-40.6C13.5,126.1,13.1,126.2,11.6,127.7z M70.7,180.1l39.1,30l-4.9,0.1c-20.4,0.6-40.4-10.5-57.4-31.8c-5.4-6.8-13.7-19.7-17.9-28.1l-1.5-3l1.8,1.3C30.9,149.5,49.3,163.6,70.7,180.1z"/></g></g></g>
</svg>