<?xml version="1.0" encoding="utf-8"?>
<!-- Svg Vector Icons : http://www.onlinewebfonts.com/icon -->
<!DOCTYPE svg PUBLIC "-//W3C//DTD SVG 1.1//EN" "http://www.w3.org/Graphics/SVG/1.1/DTD/svg11.dtd">
<svg version="1.1" xmlns="http://www.w3.org/2000/svg" xmlns:xlink="http://www.w3.org/1999/xlink" x="0px" y="0px" viewBox="0 0 256 256" enable-background="new 0 0 256 256" xml:space="preserve">
<metadata> Svg Vector Icons : http://www.onlinewebfonts.com/icon </metadata>
<g> <path fill="#000000" d="M238.1,198.8v7.9H17.8v-7.9H238.1 M246,190.9H10v23.6h236V190.9z"/> <path fill="#000000" d="M25.7,143.7h7.9v55.1h-7.9V143.7z M112.3,65.1h7.9v47.2h-7.9V65.1z M222.4,104.4h7.9v94.4h-7.9V104.4z"/> <path fill="#000000" d="M104.4,159.5v31.5H57.2v-31.5H104.4 M112.3,151.6h-63v47.2h62.9L112.3,151.6L112.3,151.6L112.3,151.6z  M198.8,159.5v31.5h-7.9v-31.5H198.8 M206.7,151.6h-23.6v47.2h23.6V151.6L206.7,151.6z M159.5,159.5v7.9h-15.7v-7.9H159.5  M167.3,151.6h-31.5v23.6h31.5V151.6L167.3,151.6z M198.8,120.1v7.9h-55.1v-7.9H198.8 M206.7,112.3h-70.8v23.6h70.8V112.3z  M143.7,49.4v20.5l-7.9-2.6V49.4H143.7 M151.6,41.5H128V73l23.6,7.9V41.5z"/> <path fill="#000000" d="M104.4,57.2l133.7,47.2v7.9L104.4,65.1V57.2z M17.8,143.7l102.3-39.3v7.9L17.8,151.6V143.7z"/></g>
</svg>