<?xml version="1.0" encoding="utf-8"?>
<!-- Svg Vector Icons : http://www.onlinewebfonts.com/icon -->
<!DOCTYPE svg PUBLIC "-//W3C//DTD SVG 1.1//EN" "http://www.w3.org/Graphics/SVG/1.1/DTD/svg11.dtd">
<svg version="1.1" xmlns="http://www.w3.org/2000/svg" xmlns:xlink="http://www.w3.org/1999/xlink" x="0px" y="0px" viewBox="0 0 256 256" enable-background="new 0 0 256 256" xml:space="preserve">
<metadata> Svg Vector Icons : http://www.onlinewebfonts.com/icon </metadata>
<g><g><path fill="#000000" d="M122.1,193.7h29.5v29.5h-29.5V193.7z M122.1,146.5h29.5v29.5h-29.5V146.5z M122.1,99.3h29.5v29.5h-29.5V99.3z M122.1,52h29.5v29.5h-29.5V52z M80.8,193.7h29.5v29.5H80.8V193.7z M80.8,146.5h29.5v29.5H80.8V146.5z M80.8,99.3h29.5v29.5H80.8V99.3z M80.8,52h29.5v29.5H80.8V52z M100,15.2c-27.7,9.8-42.8,23.6-42.8,31v200.6h118V22.5c0-7.4-10.3-13.2-17.7-11.8C157.5,10.7,127.6,5.4,100,15.2L100,15.2z M21.8,175.9c-5.7,4.9-11.8,16.2-11.8,23.6v47.2h35.4v-82.6c0-7.4-6.1-4.9-11.8,0L21.8,175.9L21.8,175.9z M204.7,87.4c-7-2.7-17.7-1.5-17.7,5.9v153.4h59V116.9c0-7.4-4.8-15.1-11.8-17.7L204.7,87.4L204.7,87.4z M204.7,128.8h17.7v17.7h-17.7V128.8z M204.7,164.2h17.7v17.7h-17.7V164.2z M204.7,199.6h17.7v17.7h-17.7V199.6z"/></g></g>
</svg>