<?xml version="1.0" encoding="utf-8"?>
<!-- Svg Vector Icons : http://www.onlinewebfonts.com/icon -->
<!DOCTYPE svg PUBLIC "-//W3C//DTD SVG 1.1//EN" "http://www.w3.org/Graphics/SVG/1.1/DTD/svg11.dtd">
<svg version="1.1" xmlns="http://www.w3.org/2000/svg" xmlns:xlink="http://www.w3.org/1999/xlink" x="0px" y="0px" viewBox="0 0 256 256" enable-background="new 0 0 256 256" xml:space="preserve">
<metadata> Svg Vector Icons : http://www.onlinewebfonts.com/icon </metadata>
<g> <path fill="#000000" d="M177.2,29.7c13,0,25.4,5.2,34.7,14.4s14.4,21.7,14.4,34.7v98.3c0,13-5.2,25.4-14.4,34.7 s-21.7,14.4-34.7,14.4H78.8c-13,0-25.4-5.2-34.7-14.4s-14.4-21.7-14.4-34.7V78.8c0-13,5.2-25.4,14.4-34.7s21.7-14.4,34.7-14.4 H177.2 M177.2,10H78.8C41,10,10,41,10,78.8v98.3C10,215,41,246,78.8,246h98.3c37.9,0,68.8-31,68.8-68.8V78.8 C246,41,215,10,177.2,10z"/> <path fill="#000000" d="M191.9,78.8c-8.2,0-14.8-6.6-14.8-14.8s6.6-14.8,14.8-14.8c8.1,0,14.8,6.6,14.8,14.8S200,78.8,191.9,78.8z  M128,88.7c21.7,0,39.3,17.6,39.3,39.3c0,21.7-17.6,39.3-39.3,39.3c-21.7,0-39.3-17.6-39.3-39.3C88.7,106.3,106.3,88.7,128,88.7  M128,69c-32.6,0-59,26.4-59,59c0,32.6,26.4,59,59,59c32.6,0,59-26.4,59-59C187,95.4,160.6,69,128,69z"/></g>
</svg>