<?xml version="1.0" encoding="utf-8"?>
<!-- Svg Vector Icons : http://www.onlinewebfonts.com/icon -->
<!DOCTYPE svg PUBLIC "-//W3C//DTD SVG 1.1//EN" "http://www.w3.org/Graphics/SVG/1.1/DTD/svg11.dtd">
<svg version="1.1" xmlns="http://www.w3.org/2000/svg" xmlns:xlink="http://www.w3.org/1999/xlink" x="0px" y="0px" viewBox="0 0 256 256" enable-background="new 0 0 256 256" xml:space="preserve">
<metadata> Svg Vector Icons : http://www.onlinewebfonts.com/icon </metadata>
<g><g><g><path fill="#000000" d="M121.9,10.4c-3.5,0.5-5.1,1.2-6.6,2.8c-2.2,2.4-2.5,5.6-0.9,8.4c1.6,2.9,3.6,3.8,7.5,3.5c6.8-0.5,19.8-0.1,24.4,0.6c24.2,4.1,46,16.5,62.3,35.5c15.7,18.2,23.5,38.9,22.6,59.5c-0.1,3.3-0.6,7.8-1,9.9c-0.7,3.2-0.7,4.2-0.2,5.8c1.2,3.9,5.1,6.1,8.9,4.9c3-0.9,4.8-3,5.6-6.8c2.6-11.8,1.9-28.5-1.8-41.5c-3.9-13.3-9.5-24.4-18.5-36.3c-4.2-5.5-14.9-16.4-20.4-20.8c-16.7-13.3-36.2-21.9-56.3-25C141.6,10.1,126.3,9.7,121.9,10.4z"/><path fill="#000000" d="M41.2,25c-2.8,0.9-19,12.6-23.6,17.1C9.8,49.7,8,61.8,12.2,78.4c7,27.1,30.5,61.6,67.2,98.2c41.2,41.2,79,65.5,107.8,69c8.7,1.1,17.1-0.3,22.4-3.7c3.8-2.4,9.5-9.1,16.7-19.8c4.6-6.7,5.2-8.3,4.8-12.1c-0.5-4.8-1.4-6-17-21.4c-13.3-13.3-14.6-14.4-17-15.2c-3-1-7.6-1.1-9.2-0.2c-0.6,0.3-3.6,2.1-6.6,4c-7.2,4.5-13.3,7.5-16.3,7.8c-2.8,0.3-5.8-0.6-11.9-3.6c-22.6-11.3-58.8-45.9-74.3-70.9c-3.2-5.2-6.9-12.7-7.7-15.8c-1.1-4.2,0.8-9.2,7.9-20.6c2.2-3.5,3.8-6.7,4.1-8c0.6-2.6,0-6.1-1.4-8.9c-1.4-2.8-28.2-29.5-31-30.9C48.4,24.9,43.4,24.3,41.2,25z"/><path fill="#000000" d="M126.4,54.6c-2.5,0.5-3.6,1.2-5.1,3c-2.7,3.5-1.5,8.6,2.4,10.7c1.8,1,2.4,1,6.7,0.8c11.5-0.6,23.6,3.4,34,11.3c15.5,11.6,23.5,28,21.6,44c-0.6,4.7-0.5,5,0.4,6.8c2.7,5.3,10.4,5.3,12.9,0c1.3-2.8,2-8.9,1.7-14.2c-1.1-14.9-7-27.9-17.9-39.5c-11-11.6-23.4-18.7-38.2-21.9C140.3,54.5,129.5,54,126.4,54.6z"/></g></g></g>
</svg>