<?xml version="1.0" encoding="UTF-8"?>
<svg version="1.1" xmlns="http://www.w3.org/2000/svg" width="300" height="140">
<path d="M0 0 C17.72572499 -1.24391053 34.14879487 7.37784281 47.33984375 18.53125 C47.88769531 19.0159375 48.43554688 19.500625 49 20 C52.5373156 18.74147321 54.99829717 17.33957682 57.8125 14.875 C70.19573661 4.99321853 85.13883579 -0.82833933 101 0 C97.17370851 2.55086099 93.21834622 4.16593642 89 6 C89 9.63 89 13.26 89 17 C90.20011719 16.48050781 91.40023437 15.96101563 92.63671875 15.42578125 C101.52295666 11.67030931 110.36486503 8.34413877 119.75 6.0625 C120.53850342 5.86374268 121.32700684 5.66498535 122.1394043 5.46020508 C138.15377981 1.8013076 155.1919358 2.87465811 171.5 2.9375 C173.78775943 2.94252769 176.07551994 2.94708834 178.36328125 2.95117188 C183.90887807 2.96207084 189.45443384 2.9787073 195 3 C195.33 4.32 195.66 5.64 196 7 C194.81784912 7.01981934 193.63569824 7.03963867 192.41772461 7.06005859 C139.28588673 6.77843024 139.28588673 6.77843024 91.6015625 27.96875 C90 29 90 29 88 29 C88.09339475 34.51788338 88.19945631 40.03532065 88.31738281 45.55273438 C88.35571977 47.43059576 88.39056427 49.30853176 88.421875 51.18652344 C88.46742363 53.88243321 88.52543375 56.57782712 88.5859375 59.2734375 C88.60326431 60.53756973 88.60326431 60.53756973 88.62094116 61.82723999 C88.54193181 66.39020957 88.54193181 66.39020957 91 70 C93.06874034 70.6425235 93.06874034 70.6425235 95 71 C95 72.98 95 74.96 95 77 C86.75 77 78.5 77 70 77 C70 75.02 70 73.04 70 71 C72.475 70.01 72.475 70.01 75 69 C75 59.43 75 49.86 75 40 C70.80665185 43.94380439 70.80665185 43.94380439 66.62353516 47.8984375 C66.10065918 48.38570312 65.5777832 48.87296875 65.0390625 49.375 C64.23782959 50.12910156 64.23782959 50.12910156 63.42041016 50.8984375 C62 52 62 52 60 52 C58.37890625 49.734375 58.37890625 49.734375 56.5625 46.75 C53.53460365 41.69593224 53.53460365 41.69593224 50 37 C49.34 37 48.68 37 48 37 C46.27939341 39.30676114 46.27939341 39.30676114 44.5625 42.1875 C43.66724609 43.63189453 43.66724609 43.63189453 42.75390625 45.10546875 C41.16197766 47.73268275 39.57621661 50.36333184 38 53 C34.57990294 51.85996765 33.71130558 50.77829802 31.4375 48.0625 C29.66869432 45.96656037 27.94005112 43.94005112 26 42 C25.94203868 46.10410755 25.90641687 50.20811016 25.875 54.3125 C25.84986328 56.06336914 25.84986328 56.06336914 25.82421875 57.84960938 C25.81777344 58.96787109 25.81132813 60.08613281 25.8046875 61.23828125 C25.79421387 62.26993408 25.78374023 63.30158691 25.77294922 64.36450195 C25.80702485 67.23187592 25.80702485 67.23187592 28 70 C30.05925139 70.72382467 30.05925139 70.72382467 32 71 C32 72.98 32 74.96 32 77 C23.42 77 14.84 77 6 77 C6 75.02 6 73.04 6 71 C7.175625 71.0928125 7.175625 71.0928125 8.375 71.1875 C9.24125 71.125625 10.1075 71.06375 11 71 C13.57069617 67.14395575 13.35065056 63.87253657 13.4140625 59.39453125 C13.43342865 58.55532639 13.4527948 57.71612152 13.4727478 56.85148621 C13.53251213 54.17192742 13.57891612 51.4923256 13.625 48.8125 C13.6631827 46.99542401 13.70223461 45.17836606 13.7421875 43.36132812 C13.83821103 38.90769868 13.92225359 34.45398449 14 30 C13.39961914 29.70955811 12.79923828 29.41911621 12.18066406 29.11987305 C9.82128987 27.90822398 7.67607792 26.46661309 5.48364258 24.97875977 C-5.55435003 17.55325763 -17.56757317 11.23433111 -31 10 C-32.09828125 9.89171875 -33.1965625 9.7834375 -34.328125 9.671875 C-49.50209798 8.50464631 -64.79152545 8.90953136 -80 9 C-80 7.68 -80 6.36 -80 5 C-72.37282629 4.87156895 -64.74593851 4.78497669 -57.11791992 4.7253418 C-54.53155093 4.70044042 -51.94525047 4.66650669 -49.35913086 4.62280273 C-29.74351186 4.29999003 -12.63960833 5.65361881 5.1875 14.3125 C5.96029297 14.67150391 6.73308594 15.03050781 7.52929688 15.40039062 C9.35944389 16.25294358 11.18089467 17.12413447 13 18 C12.505 12.06 12.505 12.06 12 6 C8.04 4.68 4.08 3.36 0 2 C0 1.34 0 0.68 0 0 Z M25 13 C24.38527818 17.48063902 24.13601523 21.54285502 25 26 C27.88842836 29.43064211 31.15475587 31.72718606 35 34 C38.74020498 32.31847927 40.56134348 30.30960527 43 27 C39.48147401 23.33161087 35.84479861 20.22834183 31.75 17.1875 C30.69296875 16.39730469 29.6359375 15.60710938 28.546875 14.79296875 C26.38283256 12.90405855 26.38283256 12.90405855 25 13 Z M67.625 17.75 C67.0475 18.1934375 66.47 18.636875 65.875 19.09375 C62.70429436 21.55502835 59.76957349 24.0803511 57 27 C58.15173355 29.46800047 59.04783565 31.04783565 61 33 C66.60940505 32.3670804 72.10543306 28.91433632 76 25 C76.94688507 20.85026325 76.67938424 17.17924247 76 13 C72.58046128 13 70.22412503 15.71191958 67.625 17.75 Z " fill="#FFFFFF" transform="translate(85,17)"/>
<path d="M0 0 C9.70666936 4.55000126 14.80566442 9.7034375 19.5 19.3125 C21.36759364 25.01903612 21.3980668 28.84954413 19.125 34.4375 C16.53311316 38.50648365 12.76333168 40.48114054 8.625 42.75 C7.635 43.41 6.645 44.07 5.625 44.75 C6.305625 45.5234375 6.305625 45.5234375 7 46.3125 C9.00700383 49.32300574 9.75231809 52.25927237 10.625 55.75 C12.275 55.75 13.925 55.75 15.625 55.75 C17.5466652 51.64284386 19.46718989 47.53515697 21.38671875 43.42700195 C22.03810813 42.03330546 22.68979384 40.63974741 23.34179688 39.24633789 C24.89375995 35.92937387 26.44181532 32.610741 27.97998047 29.28735352 C28.96889122 27.16085785 29.96944972 25.03964162 30.99267578 22.92944336 C31.36376465 22.14835205 31.73485352 21.36726074 32.1171875 20.5625 C32.58680908 19.59957031 32.58680908 19.59957031 33.06591797 18.6171875 C34.19154957 14.85787287 32.79429264 11.35955553 31.625 7.75 C31.24033427 6.23158263 30.86474015 4.71082651 30.5 3.1875 C30.21125 2.053125 29.9225 0.91875 29.625 -0.25 C31.0620809 -0.30422947 32.49975462 -0.34289723 33.9375 -0.375 C34.73800781 -0.39820313 35.53851563 -0.42140625 36.36328125 -0.4453125 C38.625 -0.25 38.625 -0.25 41.625 1.75 C42.48361206 3.49078369 42.48361206 3.49078369 43.17138672 5.61035156 C43.56727493 6.80365082 43.56727493 6.80365082 43.97116089 8.02105713 C44.24622467 8.88551453 44.52128845 9.74997192 44.8046875 10.640625 C45.09932892 11.53682556 45.39397034 12.43302612 45.69754028 13.35638428 C46.64162177 16.23445551 47.57124234 19.11695134 48.5 22 C49.42207899 24.83151261 50.3471384 27.66203516 51.27301025 30.49230957 C51.87482633 32.33312537 52.47489932 34.174512 53.07318115 36.01647949 C55.17079949 42.45198484 57.40958418 48.82004963 59.78173828 55.15917969 C60.625 57.75 60.625 57.75 60.625 60.75 C56.995 60.75 53.365 60.75 49.625 60.75 C46.985 52.83 44.345 44.91 41.625 36.75 C38.655 36.42 35.685 36.09 32.625 35.75 C32.37105469 36.80058594 32.11710937 37.85117188 31.85546875 38.93359375 C30.0514196 46.31859029 28.18485487 53.58240636 25.625 60.75 C22.74942297 60.83138426 19.87617738 60.89067851 17 60.9375 C16.19175781 60.96263672 15.38351563 60.98777344 14.55078125 61.01367188 C9.5131089 61.0751069 5.87989372 60.75721812 1.625 57.75 C-0.02734375 55.12109375 -0.02734375 55.12109375 -1.3125 52.1875 C-3.13308591 48.32039325 -3.13308591 48.32039325 -6.23828125 45.5859375 C-8.61649787 44.92614241 -10.91230967 44.75 -13.375 44.75 C-13.375 50.69 -13.375 56.63 -13.375 62.75 C-16.675 62.75 -19.975 62.75 -23.375 62.75 C-23.375 41.96 -23.375 21.17 -23.375 -0.25 C-15.23113506 -3.50754597 -8.14450498 -3.29634386 0 0 Z M-12.375 6.75 C-14.65879183 11.31758365 -13.65022605 17.61041124 -13.6875 22.625 C-13.71650391 23.91792969 -13.74550781 25.21085937 -13.77539062 26.54296875 C-13.78376953 27.78433594 -13.79214844 29.02570312 -13.80078125 30.3046875 C-13.81536377 31.44405762 -13.82994629 32.58342773 -13.8449707 33.75732422 C-13.27571739 37.38221103 -12.25003023 38.54468897 -9.375 40.75 C-4.88639722 41.40288768 -1.00069694 40.08055687 2.9375 38 C7.42618515 34.24203104 10.26689011 30.88866027 11.4921875 24.99609375 C11.79995003 19.7912863 10.3829357 14.896625 7.0703125 10.8515625 C1.58423475 5.85313611 -5.45006307 2.45176328 -12.375 6.75 Z M36.625 22.75 C36.295 25.06 35.965 27.37 35.625 29.75 C36.945 29.42 38.265 29.09 39.625 28.75 C38.965 26.77 38.305 24.79 37.625 22.75 C37.295 22.75 36.965 22.75 36.625 22.75 Z " fill="#FFFFFF" transform="translate(28.375,33.25)"/>
<path d="M0 0 C8.15357853 7.39510611 13.17930633 15.4334497 13.890625 26.63671875 C14.02540031 36.66624838 13.2404905 45.42828939 6.6875 53.4375 C2.19886797 57.8028744 -1.15202202 60.55334502 -7.625 60.6875 C-14.20074983 60.54962137 -17.85814381 58.15872306 -22.4375 53.5625 C-29.61802549 45.03390651 -31.03145583 34.89937022 -30.6953125 24.01953125 C-29.76770858 15.33980889 -26.42773706 7.72217688 -20.3125 1.4375 C-14.45285885 -2.92316318 -6.49249379 -3.06249707 0 0 Z M-13.5 2.8125 C-20.68757315 9.52090161 -22.27325021 17.78466862 -22.625 27.3125 C-22.39039403 37.24415276 -19.76657311 47.41460226 -12.4375 54.4375 C-9.49899753 56.6753687 -9.49899753 56.6753687 -6.25 56.625 C-0.99348568 54.50002613 1.0097946 50.7929108 3.4375 45.9375 C7.20567054 34.54636377 6.45318586 21.51495306 1.39453125 10.6640625 C-0.80415532 7.02119843 -3.03728709 4.17965128 -6.8125 2.125 C-10.334363 1.09051478 -10.334363 1.09051478 -13.5 2.8125 Z " fill="#FFFFFF" transform="translate(216.3125,33.5625)"/>
<path d="M0 0 C2.97 0 5.94 0 9 0 C9.02505615 0.89082275 9.0501123 1.78164551 9.07592773 2.69946289 C9.17245652 6.08234817 9.27157684 9.46513877 9.37231445 12.84790039 C9.41498015 14.2974156 9.4566846 15.7469595 9.49731445 17.1965332 C9.71401756 24.90420793 9.97662723 32.60973261 10.41015625 40.30859375 C10.47468994 41.50154053 10.53922363 42.6944873 10.60571289 43.92358398 C10.9720978 46.78229374 11.51633597 48.563331 13 51 C7.42990646 56.91822438 1.38290583 63.02280428 -7.125 63.3125 C-12.35013333 63.23578516 -16.62655492 61.86897997 -21 59 C-23.22912193 56.6510328 -25 54.36105101 -25 51 C-21.62170608 50.71477819 -18.36755224 50.54772357 -15 51 C-13.0625 53.375 -13.0625 53.375 -12 56 C-8.75073878 58.16617415 -8.4014758 58.21335669 -4.8125 57.625 C-3.554375 57.41875 -2.29625 57.2125 -1 57 C-0.06173511 53.82576416 0.12139248 50.98484218 0.11352539 47.68066406 C0.11341209 46.08946747 0.11341209 46.08946747 0.11329651 44.46612549 C0.10813522 43.32746033 0.10297394 42.18879517 0.09765625 41.015625 C0.09553383 39.25952911 0.09553383 39.25952911 0.09336853 37.46795654 C0.0877709 33.72861171 0.0752188 29.98932674 0.0625 26.25 C0.0574847 23.71484461 0.05292184 21.17968829 0.04882812 18.64453125 C0.03780224 12.42966707 0.02106644 6.21483781 0 0 Z " fill="#FFFFFF" transform="translate(255,31)"/>
<path d="M0 0 C2.97 0 5.94 0 9 0 C9 20.79 9 41.58 9 63 C6.03 63 3.06 63 0 63 C0 42.21 0 21.42 0 0 Z " fill="#FFFFFF" transform="translate(273,31)"/>
<path d="M0 0 C91.41 0 182.82 0 277 0 C277 0.66 277 1.32 277 2 C185.59 2 94.18 2 0 2 C0 1.34 0 0.68 0 0 Z " fill="#FFFFFF" transform="translate(5,97)"/>
<path d="M0 0 C1.4318545 0.00128403 1.4318545 0.00128403 2.89263535 0.00259399 C13.59511656 0.01298751 24.29755832 0.03108509 35 0.0625 C35 0.7225 35 1.3825 35 2.0625 C-56.41 2.0625 -147.82 2.0625 -242 2.0625 C-242 1.7325 -242 1.4025 -242 1.0625 C-213.27086179 0.89084552 -184.54169455 0.72445 -155.8125 0.5625 C-154.2312886 0.55357719 -154.2312886 0.55357719 -152.61813354 0.54447412 C-48.29376053 -0.04365044 -48.29376053 -0.04365044 0 0 Z " fill="#FFFFFF" transform="translate(247,122.9375)"/>
<path d="M0 0 C3.36591427 2.72478774 4.44226276 6.06856792 6 10 C8.52349243 6.87567603 10.27256146 3.61939504 12 0 C12.66 0 13.32 0 14 0 C14.33848652 1.89492006 14.67056911 3.79098466 15 5.6875 C15.185625 6.74324219 15.37125 7.79898438 15.5625 8.88671875 C15.95068074 11.64904062 16.08259976 14.21742043 16 17 C15.01 17 14.02 17 13 17 C13 14.36 13 11.72 13 9 C12.34 9 11.68 9 11 9 C10.690625 9.94875 10.38125 10.8975 10.0625 11.875 C9 15 9 15 8 17 C5 16 5 16 3.3125 12.9375 C2.879375 11.968125 2.44625 10.99875 2 10 C1.34 12.31 0.68 14.62 0 17 C-0.99 17 -1.98 17 -3 17 C-2.69268013 14.35346869 -2.37940678 11.707885 -2.0625 9.0625 C-1.97548828 8.30775391 -1.88847656 7.55300781 -1.79882812 6.77539062 C-1.11328125 1.11328125 -1.11328125 1.11328125 0 0 Z " fill="#FFFFFF" transform="translate(111,102)"/>
<path d="M0 0 C2.0625 2 2.0625 2 3 4 C-1 4 -1 4 -3.5 3.4375 C-6.07209227 2.98738385 -7.55207232 3.18402411 -10 4 C-10.52778996 8.88611292 -10.52778996 8.88611292 -8.3125 13 C-5.3932712 14.26236921 -4.02461064 13.83176793 -1 13 C0.32 13 1.64 13 3 13 C2.0625 15 2.0625 15 0 17 C-4.03724043 17.72639743 -7.69146006 17.52341598 -11.5 16 C-13.79718667 12.93708443 -14.20360533 9.73034057 -14 6 C-11.06651021 -0.56542954 -6.6978252 -0.94456509 0 0 Z " fill="#FFFFFF" transform="translate(174,102)"/>
<path d="M0 0 C2.375 0.8125 2.375 0.8125 4.375 2.8125 C4.75 6.25 4.75 6.25 4.375 9.8125 C2.6875 11.8125 2.6875 11.8125 0.375 12.8125 C-2.82438696 12.73446617 -4.15629544 12.24995759 -6.5 10.0625 C-7.625 7.8125 -7.625 7.8125 -7.5625 5.25 C-6.06193754 1.3485376 -4.25939617 -0.30424258 0 0 Z M1.375 3.8125 C1.045 5.1325 0.715 6.4525 0.375 7.8125 C1.365 8.3075 1.365 8.3075 2.375 8.8125 C2.705 7.8225 3.035 6.8325 3.375 5.8125 C2.715 5.1525 2.055 4.4925 1.375 3.8125 Z M-2.625 7.8125 C-2.295 8.8025 -1.965 9.7925 -1.625 10.8125 C-1.625 9.8225 -1.625 8.8325 -1.625 7.8125 C-1.955 7.8125 -2.285 7.8125 -2.625 7.8125 Z " fill="#FFFFFF" transform="translate(291.625,18.1875)"/>
<path d="M0 0 C2.97 0 5.94 0 9 0 C9 0.99 9 1.98 9 3 C7.02 3 5.04 3 3 3 C3 4.32 3 5.64 3 7 C4.98 7 6.96 7 9 7 C9 7.66 9 8.32 9 9 C7.02 9 5.04 9 3 9 C3 11.64 3 14.28 3 17 C2.01 17 1.02 17 0 17 C0 11.39 0 5.78 0 0 Z " fill="#FFFFFF" transform="translate(6,102)"/>
<path d="M0 0 C3.3 0 6.6 0 10 0 C10 0.99 10 1.98 10 3 C9.01 3 8.02 3 7 3 C7 7.62 7 12.24 7 17 C6.01 17 5.02 17 4 17 C4 12.38 4 7.76 4 3 C2.68 3 1.36 3 0 3 C0 2.01 0 1.02 0 0 Z " fill="#FFFFFF" transform="translate(233,102)"/>
<path d="M0 0 C1.32 0.33 2.64 0.66 4 1 C4.33 2.32 4.66 3.64 5 5 C5.66 5 6.32 5 7 5 C7.66 3.35 8.32 1.7 9 0 C9.99 0 10.98 0 12 0 C10.94124926 3.40312738 9.99097846 6.01353231 8 9 C7.54860541 11.0492094 7.54860541 11.0492094 7.375 13.1875 C7.25125 14.445625 7.1275 15.70375 7 17 C6.34 17 5.68 17 5 17 C4.89042969 16.33613281 4.78085937 15.67226562 4.66796875 14.98828125 C3.77839831 10.03416944 2.89625691 6.21273732 0 2 C0 1.34 0 0.68 0 0 Z " fill="#FFFFFF" transform="translate(269,102)"/>
<path d="M0 0 C0.99 0 1.98 0 3 0 C3 4.62 3 9.24 3 14 C4.98 14 6.96 14 9 14 C9 14.99 9 15.98 9 17 C6.03 17 3.06 17 0 17 C0 11.39 0 5.78 0 0 Z " fill="#FFFFFF" transform="translate(73,102)"/>
<path d="M0 0 C0.99 0 1.98 0 3 0 C3 5.61 3 11.22 3 17 C2.01 17 1.02 17 0 17 C0 11.39 0 5.78 0 0 Z " fill="#FFFFFF" transform="translate(204,102)"/>
<path d="M0 0 C0.99 0 1.98 0 3 0 C3 5.61 3 11.22 3 17 C2.01 17 1.02 17 0 17 C0 11.39 0 5.78 0 0 Z " fill="#FFFFFF" transform="translate(42,102)"/>
<path d="M0 0 C1.98 0.495 1.98 0.495 4 1 C3.67 2.32 3.34 3.64 3 5 C1.68 4.67 0.36 4.34 -1 4 C-0.67 2.68 -0.34 1.36 0 0 Z " fill="#FFFFFF" transform="translate(256,108)"/>
<path d="M0 0 C1.98 0.495 1.98 0.495 4 1 C3.67 2.32 3.34 3.64 3 5 C1.68 4.67 0.36 4.34 -1 4 C-0.67 2.68 -0.34 1.36 0 0 Z " fill="#FFFFFF" transform="translate(219,108)"/>
<path d="M0 0 C1.98 0.495 1.98 0.495 4 1 C3.67 2.32 3.34 3.64 3 5 C1.68 4.67 0.36 4.34 -1 4 C-0.67 2.68 -0.34 1.36 0 0 Z " fill="#FFFFFF" transform="translate(95,108)"/>
<path d="M0 0 C1.98 0.495 1.98 0.495 4 1 C3.67 2.32 3.34 3.64 3 5 C1.68 4.67 0.36 4.34 -1 4 C-0.67 2.68 -0.34 1.36 0 0 Z " fill="#FFFFFF" transform="translate(58,108)"/>
<path d="M0 0 C1.98 0.495 1.98 0.495 4 1 C3.67 2.32 3.34 3.64 3 5 C1.68 4.67 0.36 4.34 -1 4 C-0.67 2.68 -0.34 1.36 0 0 Z " fill="#FFFFFF" transform="translate(25,108)"/>
<path d="M0 0 C1.98 0.495 1.98 0.495 4 1 C3.67 2.32 3.34 3.64 3 5 C1.68 4.67 0.36 4.34 -1 4 C-0.67 2.68 -0.34 1.36 0 0 Z " fill="#FFFFFF" transform="translate(186,108)"/>
</svg>
