<?xml version="1.0" encoding="utf-8"?>
<!-- Svg Vector Icons : http://www.onlinewebfonts.com/icon -->
<!DOCTYPE svg PUBLIC "-//W3C//DTD SVG 1.1//EN" "http://www.w3.org/Graphics/SVG/1.1/DTD/svg11.dtd">
<svg version="1.1" xmlns="http://www.w3.org/2000/svg" xmlns:xlink="http://www.w3.org/1999/xlink" x="0px" y="0px" viewBox="0 0 256 256" enable-background="new 0 0 256 256" xml:space="preserve">
<metadata> Svg Vector Icons : http://www.onlinewebfonts.com/icon </metadata>
<g><g><path fill="#000000" d="M10,136.6c69.4,35.6,110,82.7,110,82.7h11.2c-42.1-49.6-99.1-78-113.6-84.6L10,136.6L10,136.6z M130.8,110.7c0,2.6,2.2,4.8,4.8,4.8h71.6c-7.9-4.7-15.6-10-23.1-15.8c-13.7-10.5-25.8-22.1-36.1-34.3h-12.4c-2.6,0-4.8,2.1-4.8,4.8L130.8,110.7L130.8,110.7z M208.5,196.8l-86.9-0.9l13.1,12.2h87.5c8,6.8,12.6,11.2,12.6,11.2H246c-9.6-10.9-20.7-20.9-32.2-29.9c11.5-3,20-13.9,20-26.2V68.5c0-14.6-11.9-31.8-26.5-31.8h-81.7c-6.7,0-12.8,3.6-17.5,9c-11.2,7.4-61.7,40.6-73.9,42.7c0,0-3.6,1.2-3.6,7.2c0,6,0,33,0,33s0.4,5.4,6,7.2c18.7,5.9,56.5,35.1,69.3,45.3c4.9,5.6,11.9,9.2,19.7,9.2h74.5C203,192.5,205.9,194.6,208.5,196.8L208.5,196.8L208.5,196.8z M45.8,108.3c-2.8,0.1-5.7,0.2-8.5,0.5V92.9c0,0,3.3-0.9,8.5-2.5V108.3L45.8,108.3z M64.6,84.3v24.2c-3.7-0.2-7.6-0.3-11.5-0.3v-20C56.6,87.1,60.5,85.8,64.6,84.3L64.6,84.3L64.6,84.3z M83.8,77.2v33.1c-3.4-0.5-7.1-0.9-11.1-1.2V81.5C76.4,80.1,80.1,78.7,83.8,77.2L83.8,77.2L83.8,77.2z M91.9,73.7c4.1-1.8,8-3.7,11.4-5.6l-0.5,45.4c0,0-4.2-0.9-10.9-2V73.7L91.9,73.7z M139.6,168c-6.9,0-12.4-5.6-12.4-12.4c0-6.8,5.6-12.4,12.4-12.4s12.5,5.6,12.5,12.4C152.1,162.5,146.5,168,139.6,168L139.6,168z M207.1,42.4c2.6-0.2,6.8,4.4,9.5,7.7H136c-1.2-2.4-3-5.5-5.1-7.7C148.3,42.4,201.2,42.8,207.1,42.4L207.1,42.4z M225.4,110.7c0,5-4.1,9-9,9h-80.8c-5,0-9.1-4-9.1-9V70.1c0-5,4.1-9,9.1-9h80.8c5,0,9,4,9,9L225.4,110.7L225.4,110.7z M224.8,155.6c0,6.9-5.6,12.4-12.5,12.4c-6.9,0-12.4-5.6-12.4-12.4c0-6.8,5.6-12.4,12.4-12.4C219.2,143.2,224.8,148.8,224.8,155.6L224.8,155.6z"/></g></g>
</svg>